{"title":"The.last.house.on.the.left.(2009).(Dutchsubs-HC)-WaRlOrD","uid":5052097,"size":725336299,"categoryP":"video","categoryS":"movies","magnet":"?xt=urn:btih:5d3d6faff3ea875bbd2fc0539f064cc7e45973f1&amp;dn=The.last.house.on.the.left.%282009%29.%28Dutchsubs-HC%29-WaRlOrD&amp;tr=udp%3A%2F%2Ftracker.openbittorrent.com%3A80&amp;tr=udp%3A%2F%2Fopen.demonii.com%3A1337&amp;tr=udp%3A%2F%2Ftracker.coppersurfer.tk%3A6969&amp;tr=udp%3A%2F%2Fexodus.desync.com%3A6969","seeders":0,"leechers":1,"uploader":"bitpirate","files":2,"time":1250215074,"description":"WaRlOrD presents: The last house on the left.\n\nNa twee jonge vrouwen gekidnapt en geslagen te hebben, komt een bende - geleid door een voortvluchtige gevangene - per ongeluk terecht in het vakantiehuis van de ouders van een van de slachtoffers. Moeder en vader zinnen op een gruwelijke wraak...\n\nFormat                           : AVI\nFormat/Info                      : Audio Video Interleave\nFile size                        : 692 MiB\nDuration                         : 1h 53mn\nOverall bit rate                 : 851 Kbps\nWriting application              : FairUse Wizard - http://fairusewizard.com\nWriting library                  : The best and REALLY easy backup tool\n\nVideo\nID                               : 0\nFormat                           : MPEG-4 Visual\nFormat profile                   : Advanced Simple@L5\nFormat settings, BVOP            : Yes\nFormat settings, QPel            : No\nFormat settings, GMC             : No warppoints\nFormat settings, Matrix          : Default (H.263)\nMuxing mode                      : Packed bitstream\nCodec ID                         : XVID\nCodec ID/Hint                    : XviD\nDuration                         : 1h 53mn\nBit rate                         : 713 Kbps\nWidth                            : 544 pixels\nHeight                           : 288 pixels\nDisplay aspect ratio             : 1.889\nFrame rate                       : 23.976 fps\nResolution                       : 24 bits\nColorimetry                      : 4:2:0\nScan type                        : Progressive\nBits/(Pixel*Frame)               : 0.190\nStream size                      : 580 MiB (84%)\nWriting library                  : XviD 1.2.0.dev47 (UTC 2006-11-01)\n\nAudio\nID                               : 1\nFormat                           : MPEG Audio\nFormat version                   : Version 1\nFormat profile                   : Layer 3\nCodec ID                         : 55\nCodec ID/Hint                    : MP3\nDuration                         : 1h 53mn\nBit rate mode                    : Constant\nBit rate                         : 128 Kbps\nChannel(s)                       : 2 channels\nSampling rate                    : 48.0 KHz\nResolution                       : 16 bits\nStream size                      : 104 MiB (15%)\nAlignment                        : Aligned on interleaves\nInterleave, duration             : 42 ms (1.00 video frame)\nInterleave, preload duration     : 504 ms\nWriting library                  : LAME3.97 \nEncoding settings                : -m j -V 4 -q 2 -lowpass 17 -b 128\n\n","torrent":{"xt":"urn:btih:5d3d6faff3ea875bbd2fc0539f064cc7e45973f1","amp;dn":"The.last.house.on.the.left.%282009%29.%28Dutchsubs-HC%29-WaRlOrD","amp;tr":["udp%3A%2F%2Ftracker.openbittorrent.com%3A80","udp%3A%2F%2Fopen.demonii.com%3A1337","udp%3A%2F%2Ftracker.coppersurfer.tk%3A6969","udp%3A%2F%2Fexodus.desync.com%3A6969"],"infoHash":"5d3d6faff3ea875bbd2fc0539f064cc7e45973f1","infoHashBuffer":{"type":"Buffer","data":[93,61,111,175,243,234,135,91,189,47,192,83,159,6,76,199,228,89,115,241]},"announce":[],"urlList":[]}}